<svg height="512pt" viewBox="0 0 512 512.00085" width="512pt" xmlns="http://www.w3.org/2000/svg"><path d="m475.472656 459.179688c-12.09375-21.242188-28.382812-39.796876-47.882812-54.535157l-21.363282-16.152343-.964843 123.507812h106.734375zm0 0"/><path d="m375.261719 512 .851562-109.21875-197.246093 109.21875zm0 0"/><path d="m400.851562 167.390625c2.898438 10.980469 4.375 20.875 5.085938 26.945313 17.363281-12.375 28.105469-32.671876 28.105469-54.375 0-23.074219-11.898438-44.234376-31.007813-56.332032-1.578125-22.617187-14.605468-43.160156-34.984375-54.097656-12.902343-6.925781-27.300781-9.371094-41.46875-7.191406-5.175781-5.808594-11.355469-10.695313-18.25-14.398438-22.441406-12.046875-49.300781-10.117187-69.542969 3.941406-11.066406-7.652343-24.324218-11.87890575-37.949218-11.87890575-14.636719 0-28.484375 4.65234375-39.933594 13.27343775-8.285156-3.03125-17.132812-4.394532-26.046875-3.980469-34.625 1.609375-62.511719 30.023437-63.492187 64.679687-.003907.128907-.007813.257813-.011719.390626-.382813 17.113281 9.160156 32.667968 23.953125 40.566406-4.074219 11.742187-6.28125 24.824218-6.28125 39.246094l-22.492188 92.53125c-1.53125 6.296874 3.238282 12.359374 9.714844 12.359374h25.59375l5.34375 60.210938c2.589844 24.351562 26.253906 40.679688 49.9375 34.457031l50.292969-13.210937v50.75l-93.722657 30.046875c-34.339843 11.007812-64.582031 32.078125-86.804687 60.480469l-26.890625 30.195312h116.941406l261.277344-144.679688-40.261719-30.4375v-75.929687c12.445313-8.882813 20.597657-23.523437 20.597657-40.0625 0-4.605469-.644532-9.058594-1.824219-13.285156.097656-.238281.1875-.480469.285156-.71875-7.441406-2.796875-15.542969-6.300781-23.558594-10.605469-13.339843 4.085938-43.402343 11.792969-72.265625 8.753906-17.8125-1.875-36.425781-12.058594-55.328125-30.261718-13.277343-12.789063-21.941406-25.082032-22.304687-25.597657-2.695313-3.847656-3.433594-8.730469-1.996094-13.203125 1.433594-4.46875 4.882812-8.011718 9.316406-9.5625 1.699219-.597656 42.054688-14.550781 79.703125-10.585937 3.320313.351562 6.664063.988281 10.03125 1.90625-2.347656-11.929688-2.953125-20.640625-2.988281-21.117188-.3125-4.683593 1.585938-9.246093 5.132812-12.324219 3.542969-3.078124 8.328126-4.320312 12.921876-3.355468 1.761718.371094 43.511718 9.335937 73.660156 32.226562 14.269531 10.832032 24.867187 29.074219 31.511718 54.230469zm-249.148437 38.359375h-10.367187c-8.285157 0-15-6.714844-15-15s6.714843-15 15-15h10.367187c8.285156 0 15 6.714844 15 15s-6.714844 15-15 15zm0 0"/><path d="m351.203125 137.054688c-12.328125-9.359376-27.5625-16.035157-40.179687-20.46875 4.738281 21.027343 12.660156 36.871093 22.21875 44.128906 12.324218 9.355468 27.484374 15.871094 40.015624 20.132812-4.632812-20.808594-12.5-36.539062-22.054687-43.792968zm0 0"/><path d="m221.457031 147.324219c14.304688 16.121093 28.898438 26.164062 40.773438 27.898437 15.3125 2.238282 31.730469.617188 44.761719-1.707031-14.109376-15.980469-28.597657-25.949219-40.46875-27.683594-15.316407-2.238281-31.878907-.722656-45.066407 1.492188zm0 0"/></svg>